Coordinates
version=1
nRows=7
nColumns=40
inDegrees=yes

Units are S.I. units (second, meters, Newtons, ...)
Angles are in degrees.

endheader
time	pelvis_tilt	pelvis_list	pelvis_rotation	pelvis_tx	pelvis_ty	pelvis_tz	hip_flexion_r	hip_adduction_r	hip_rotation_r	knee_angle_r	knee_angle_r_beta	ankle_angle_r	subtalar_angle_r	mtp_angle_r	hip_flexion_l	hip_adduction_l	hip_rotation_l	knee_angle_l	knee_angle_l_beta	ankle_angle_l	subtalar_angle_l	mtp_angle_l	lumbar_extension	lumbar_bending	lumbar_rotation	arm_flex_r	arm_add_r	arm_rot_r	elbow_flex_r	pro_sup_r	wrist_flex_r	wrist_dev_r	arm_flex_l	arm_add_l	arm_rot_l	elbow_flex_l	pro_sup_l	wrist_flex_l	wrist_dev_l
      1.65000000	     -1.92041841	      0.20478604	      7.88544657	      0.51754819	      0.88489251	      1.40793252	     29.49865248	     -6.35711096	    -17.28572652	    -21.80040996	     -0.38048893	      5.25433318	     -8.27549638	     16.26571792	      2.16454699	      1.24121334	      8.65055811	    -28.30853471	     -0.49407714	     14.63024398	      3.47000430	     -4.37742281	     -5.50815948	     -2.00065325	     -9.04191053	     -6.47356263	     -6.71856035	    -16.17922076	     19.19718207	     89.95437384	      0.00000000	      0.00000000	     12.79492739	     15.58639794	     18.56245419	     45.58525491	     89.95437384	      0.00000000	      0.00000000
      1.66000000	     -1.80947561	     -0.11052734	      8.17940423	      0.52730903	      0.88436935	      1.40852091	     29.26523576	     -6.17081699	    -18.97720266	    -19.94542714	     -0.34811337	      5.52322634	     -4.88588671	     15.09393400	      1.63294500	      1.98252489	      8.83044230	    -28.70181698	     -0.50094121	     14.37036094	      2.64839205	     -4.86955559	     -5.58230775	     -1.55655645	     -9.20625808	     -6.69649952	     -6.67012805	    -16.49949592	     19.19391896	     89.95437384	      0.00000000	      0.00000000	     13.09425968	     15.60162065	     18.56974237	     45.74692903	     89.95437384	      0.00000000	      0.00000000
      1.67000000	     -2.10779950	      0.14965985	      8.08823480	      0.53729620	      0.88315791	      1.40919207	     29.70532371	     -6.32344022	    -19.09758286	    -18.80710739	     -0.32824595	      5.66092259	     -3.63809302	     14.55346929	      1.30338935	      1.85488453	      8.81359312	    -28.90384726	     -0.50446730	     14.03157029	      2.32875187	     -4.98840456	     -5.17182919	     -1.80096407	     -9.17261264	     -6.95848013	     -6.65479306	    -16.55160755	     19.20499156	     89.95437384	      0.00000000	      0.00000000	     13.08341459	     15.75004029	     18.55456805	     45.87317132	     89.95437384	      0.00000000	      0.00000000
      1.68000000	     -2.28345089	      0.33737305	      8.04684197	      0.54730239	      0.88202000	      1.41014850	     30.19330848	     -6.39519392	    -19.22229091	    -18.43227547	     -0.32170390	      5.71540689	     -3.38587262	     14.30981008	      0.88454212	      1.86991475	      8.79906649	    -29.14885860	     -0.50874356	     13.88543678	      2.27089551	     -4.96445000	     -4.91912418	     -1.98394914	     -9.08172585	     -7.22062248	     -6.59914511	    -16.51333234	     19.21471466	     89.95437384	      0.00000000	      0.00000000	     13.12696930	     15.83279409	     18.59848435	     46.00174322	     89.95437384	      0.00000000	      0.00000000
      1.69000000	     -1.83186071	      0.15946189	      8.09886224	      0.55843184	      0.88196744	      1.41069628	     29.44842484	     -6.15959532	    -20.21578911	    -17.49149113	     -0.30528411	      6.03943690	      0.00923406	     12.81064039	     -0.29800596	      2.49138401	      9.13144302	    -29.25915351	     -0.51066857	     13.41291849	      1.36764261	     -5.63888895	     -5.20983289	     -1.58256342	     -9.16354269	     -7.22858454	     -6.66418992	    -16.77601824	     18.92138854	     89.95437384	      0.00000000	      0.00000000	     13.02859743	     15.69381811	     19.00750140	     46.11824797	     89.95437384	      0.00000000	      0.00000000
      1.70000000	     -1.98142538	      0.34995072	      8.13240860	      0.56900339	      0.88072758	      1.41137387	     29.76151684	     -6.22796491	    -19.95591951	    -17.68309675	     -0.30862826	      5.92264162	      0.02386188	     12.53618650	     -0.68303586	      2.47882701	      8.91165852	    -29.64823319	     -0.51745929	     13.10623721	      1.31263904	     -5.55770924	     -4.91711175	     -1.70901180	     -9.14918497	     -7.55619035	     -6.69135726	    -16.70821679	     19.09638618	     89.95437384	      0.00000000	      0.00000000	     12.88806630	     15.71760217	     18.99102326	     46.20606220	     89.95437384	      0.00000000	      0.00000000
      1.71000000	     -1.91920867	      0.47155898	      8.20622710	      0.58005468	      0.87999362	      1.41196929	     29.68374612	     -6.20030097	    -19.52941935	    -18.00932704	     -0.31432205	      6.08311210	     -0.02641775	     12.06938857	     -1.42084525	      2.51953706	      8.46239454	    -29.80368872	     -0.52017250	     12.81284142	      1.20462536	     -5.63024299	     -4.76317559	     -1.70872247	     -9.24491909	     -7.55175128	     -6.74842115	    -16.59878184	     18.68500438	     89.95437384	      0.00000000	      0.00000000	     12.70662147	     15.71018545	     19.10207811	     46.06726316	     89.95437384	      0.00000000	      0.00000000
